<?xml version="1.0" standalone="no"?>
<!DOCTYPE svg PUBLIC "-//W3C//DTD SVG 20010904//EN"
 "http://www.w3.org/TR/2001/REC-SVG-20010904/DTD/svg10.dtd">
<svg version="1.0" xmlns="http://www.w3.org/2000/svg"
 width="724.000000pt" height="724.000000pt" viewBox="0 0 724.000000 724.000000"
 preserveAspectRatio="xMidYMid meet">
<metadata>
Created by potrace 1.11, written by Peter Selinger 2001-2013
</metadata>
<g transform="translate(0.000000,724.000000) scale(0.100000,-0.100000)"
fill="#000000" stroke="none">
<path d="M3885 6521 c-12 -20 -8 -4172 4 -4184 6 -6 11 -7 11 -2 0 6 72 10
178 10 l177 0 0 1930 1 1930 454 -1 c532 -1 577 -3 808 -50 67 -13 134 -29
150 -35 15 -6 38 -13 52 -16 14 -2 38 -11 54 -19 16 -8 33 -14 38 -14 18 0
251 -113 268 -130 3 -3 16 -11 30 -19 108 -59 352 -275 430 -380 14 -19 33
-43 42 -55 30 -36 32 -39 73 -101 43 -65 124 -219 144 -275 7 -19 17 -44 21
-55 19 -49 40 -112 44 -138 3 -16 9 -43 15 -60 5 -18 12 -48 15 -67 3 -19 8
-46 10 -60 24 -131 24 -378 0 -575 -10 -81 -46 -239 -71 -314 -24 -71 -116
-271 -145 -316 -7 -11 -31 -47 -52 -80 -43 -65 -98 -136 -161 -203 -22 -24
-41 -48 -43 -53 -2 -5 -7 -9 -12 -9 -5 0 -26 -17 -47 -38 -43 -42 -179 -152
-188 -152 -4 0 -21 -11 -38 -24 -42 -31 -178 -106 -247 -135 -30 -13 -68 -29
-85 -36 -25 -11 -127 -46 -145 -50 -3 -1 -23 -7 -45 -13 -22 -6 -55 -14 -74
-17 -19 -3 -37 -7 -40 -9 -3 -2 -28 -7 -55 -10 -27 -4 -52 -9 -56 -11 -6 -4
-124 -15 -220 -20 -147 -9 -328 -18 -352 -18 -32 -1 -30 13 -30 -168 0 -70 2
-131 6 -137 6 -10 339 -9 416 2 19 2 60 7 91 10 31 3 73 8 93 11 20 3 51 7 69
10 54 7 241 46 249 51 5 3 21 8 36 10 37 7 167 51 219 75 24 10 45 19 48 19 8
0 130 61 200 100 61 34 198 126 243 164 242 202 419 418 554 676 43 81 112
244 109 257 -1 2 8 27 18 55 29 81 64 245 78 368 10 84 10 426 0 510 -46 403
-140 672 -338 960 -94 138 -239 294 -374 404 -38 31 -77 62 -84 69 -8 6 -63
44 -122 83 -182 121 -416 224 -609 269 -105 24 -153 34 -195 40 -27 4 -61 9
-75 11 -35 6 -93 12 -170 20 -124 12 -1367 17 -1375 5z"/>
<path d="M2959 6360 c0 -8 -1 -1212 -2 -2675 l-2 -2660 -360 1 c-330 0 -580 7
-630 17 -11 3 -51 8 -90 12 -38 4 -79 9 -90 11 -11 3 -36 7 -55 10 -72 12
-268 74 -360 113 -101 43 -254 124 -299 158 -9 6 -52 39 -96 71 -75 56 -198
171 -255 238 -70 82 -180 241 -180 261 0 6 -4 13 -8 15 -14 5 -109 216 -128
283 -1 6 -12 44 -24 85 -32 112 -41 158 -56 300 -14 121 -7 408 12 503 4 21
13 73 20 109 30 170 137 420 250 583 109 159 264 316 410 415 27 19 51 37 52
42 2 4 7 8 12 8 5 0 44 21 87 48 159 97 357 178 503 206 14 2 48 9 75 15 69
14 157 27 245 37 41 4 435 14 555 14 l50 0 -1 148 c-1 81 -2 152 -3 158 -1 14
-631 8 -631 -6 0 -3 -17 -5 -38 -6 -36 0 -115 -9 -157 -18 -11 -2 -58 -11
-105 -20 -47 -9 -110 -23 -140 -31 -30 -9 -66 -18 -80 -21 -13 -3 -30 -10 -37
-16 -7 -6 -13 -8 -13 -5 0 9 -195 -70 -291 -117 -383 -191 -714 -535 -911
-946 -25 -52 -53 -117 -63 -145 -9 -27 -21 -59 -25 -70 -11 -24 -40 -131 -47
-165 -2 -13 -10 -54 -18 -91 -23 -108 -29 -192 -30 -389 0 -166 6 -277 19
-350 3 -14 7 -47 11 -73 9 -72 22 -134 45 -217 12 -41 24 -86 27 -100 3 -14 9
-29 13 -35 4 -5 13 -28 20 -50 20 -62 93 -212 147 -300 132 -219 309 -409 563
-608 70 -55 247 -155 380 -215 96 -43 292 -105 400 -126 14 -3 34 -7 45 -9 11
-3 42 -8 68 -11 27 -4 59 -9 70 -12 12 -2 49 -7 82 -10 33 -3 76 -8 95 -11 47
-7 1296 -13 1337 -6 36 6 43 28 32 95 -4 21 -2 38 3 38 5 0 6 5 2 11 -9 15
-11 129 -2 129 4 0 3 12 -1 28 -4 15 -4 39 0 54 4 16 4 28 1 28 -9 0 -8 153 1
167 4 7 4 14 -1 17 -4 3 -5 30 -2 60 3 31 4 56 1 56 -5 0 -6 131 -1 155 1 6 1
12 0 15 -6 16 -4 128 3 143 4 9 4 17 -1 17 -5 0 -7 17 -4 38 2 20 3 42 3 47
-5 89 -5 135 1 135 4 0 3 12 -1 28 -4 15 -4 39 0 55 4 15 4 27 1 27 -4 0 -7
29 -7 65 0 36 4 65 8 65 5 0 5 4 2 10 -9 14 -10 103 -2 116 3 6 4 14 0 17 -9
10 -9 177 0 177 5 0 5 4 2 10 -9 14 -10 103 -2 116 3 6 3 14 0 18 -4 4 -6 30
-4 59 1 29 2 57 2 62 0 6 -2 38 -3 73 -2 34 0 62 4 62 4 0 3 12 -1 28 -4 15
-4 39 0 55 4 15 4 27 1 27 -9 0 -8 153 1 167 4 7 4 14 -1 17 -4 3 -5 30 -2 60
3 31 4 56 1 56 -5 0 -6 131 -1 155 1 6 1 12 0 15 -6 16 -4 128 3 143 4 9 4 17
-1 17 -5 0 -7 17 -4 38 2 20 3 42 3 47 -5 89 -5 135 1 135 4 0 3 12 -1 28 -4
15 -4 39 0 55 4 15 4 27 1 27 -4 0 -7 29 -7 65 0 36 4 65 8 65 5 0 5 4 2 10
-9 14 -10 103 -2 116 3 6 4 14 0 17 -9 10 -9 177 0 177 5 0 5 4 2 10 -9 14
-10 103 -2 116 3 6 4 14 0 17 -9 10 -9 177 0 177 5 0 5 4 2 10 -9 14 -10 103
-2 116 3 6 4 14 0 17 -9 10 -9 177 0 177 5 0 5 4 2 10 -9 14 -10 103 -2 116 3
6 3 14 0 18 -4 4 -6 30 -4 59 1 29 2 57 2 62 0 6 -2 38 -3 73 -2 34 0 62 4 62
4 0 3 12 -1 28 -4 15 -4 39 0 55 4 15 4 27 1 27 -9 0 -8 153 1 167 4 7 4 14
-1 17 -4 3 -5 30 -2 60 3 31 4 56 1 56 -5 0 -6 131 -1 155 1 6 1 12 0 15 -6
16 -4 128 3 143 4 9 4 17 0 17 -4 0 -8 39 -8 87 l0 88 -197 0 c-171 1 -198 -1
-199 -15z"/>
</g>
</svg>
