<?xml version="1.0" encoding="utf-8"?>
<!-- Generator: Adobe Illustrator 22.0.1, SVG Export Plug-In . SVG Version: 6.00 Build 0)  -->
<svg version="1.1" id="Слой_1" xmlns="http://www.w3.org/2000/svg" xmlns:xlink="http://www.w3.org/1999/xlink" x="0px" y="0px"
	 viewBox="0 0 814.3 285.7" style="enable-background:new 0 0 814.3 285.7;" xml:space="preserve">
<style type="text/css">
	.st0{opacity:0.5;}
	.st1{fill:url(#SVGID_1_);}
	.st2{fill:url(#SVGID_2_);}
	.st3{fill:#494949;}
	.st4{opacity:0.5;fill:#494949;}
</style>
<g class="st0">
	
		<linearGradient id="SVGID_1_" gradientUnits="userSpaceOnUse" x1="261.218" y1="1401.1519" x2="10.782" y2="1294.8481" gradientTransform="matrix(1 0 0 1 0 -1212)">
		<stop  offset="0" style="stop-color:#192475"/>
		<stop  offset="0.1745" style="stop-color:#1B2878"/>
		<stop  offset="0.3391" style="stop-color:#203382"/>
		<stop  offset="0.4998" style="stop-color:#284693"/>
		<stop  offset="0.658" style="stop-color:#3461AB"/>
		<stop  offset="0.8145" style="stop-color:#4384CA"/>
		<stop  offset="0.9677" style="stop-color:#56ADEF"/>
		<stop  offset="1" style="stop-color:#5AB7F8"/>
	</linearGradient>
	<path class="st1" d="M136,0C60.9,0,0,60.9,0,136s60.9,136,136,136s136-60.9,136-136S211.1,0,136,0z M136.7,198.3
		c-34.4,0-62.3-27.9-62.3-62.3s27.9-62.3,62.3-62.3S199,101.6,199,136S171.1,198.3,136.7,198.3z"/>
</g>
<g class="st0">
	
		<linearGradient id="SVGID_2_" gradientUnits="userSpaceOnUse" x1="132.8465" y1="1257.8136" x2="213.1535" y2="1438.1864" gradientTransform="matrix(1 0 0 1 0 -1212)">
		<stop  offset="0" style="stop-color:#030EA1"/>
		<stop  offset="0.1038" style="stop-color:#0715A3"/>
		<stop  offset="0.2492" style="stop-color:#1327AA"/>
		<stop  offset="0.4192" style="stop-color:#2745B4"/>
		<stop  offset="0.6079" style="stop-color:#436EC3"/>
		<stop  offset="0.8093" style="stop-color:#65A3D6"/>
		<stop  offset="1" style="stop-color:#8BDCEA"/>
	</linearGradient>
	<path class="st2" d="M173,37.3c-54.5,0-98.7,44.2-98.7,98.7c0-34.4,27.9-62.3,62.3-62.3s62.3,27.9,62.3,62.3s-27.9,62.3-62.3,62.3
		S74.3,170.4,74.3,136c0,54.5,44.2,98.7,98.7,98.7s98.7-44.2,98.7-98.7S227.5,37.3,173,37.3z"/>
</g>
<line class="st3" x1="528" y1="285.7" x2="266" y2="285.7"/>
<g>
	<g>
		<path class="st4" d="M339.9,133.2H317l-4.4,17.7h-20.7l20.4-69.2c0.4-1.6,1.2-2.9,2.4-3.8c1.3-1,2.7-1.5,4.4-1.5h18.8
			c1.7,0,3.1,0.5,4.4,1.5s2.1,2.3,2.5,3.8l20.3,69.2h-20.7L339.9,133.2z M336.1,118.5l-4.8-19.1c-0.8-3.7-1.3-6.3-1.4-7.8H327
			c-0.5,2.7-1,5.3-1.5,7.8l-4.8,19.1H336.1z"/>
		<path class="st4" d="M433.7,150.9h-21.3l-5.3-22.5c-0.5-2.2-1.3-3.6-2.3-4.4s-2.6-1.2-4.7-1.2h-9.2v28.1h-20V76.4
			c7.1-0.7,17.1-1.1,30.1-1.1c10.7,0,18.4,1.6,22.9,4.9s6.8,9.1,6.8,17.5c0,10.9-4.9,17-14.7,18v0.6c6.3,1,10.1,4.8,11.4,11.4
			L433.7,150.9z M390.9,108.1h9.7c3.8,0,6.4-0.6,7.7-1.8c1.3-1.2,2-3.6,2-7.1s-0.7-5.9-2-7.1s-3.9-1.8-7.7-1.8h-9.7V108.1z"/>
		<path class="st4" d="M499.9,92.1h-21.5V151h-20.3V92.1h-21.4V76.4h63.2L499.9,92.1L499.9,92.1z"/>
		<path class="st4" d="M557,124.4l-14.9-5.9c-5.8-2.4-10-5.3-12.4-8.7c-2.4-3.4-3.7-7.9-3.7-13.4c0-8.4,2.1-14,6.4-16.9
			c4.2-2.9,11.8-4.4,22.7-4.4c10.4,0,19.1,1.1,25.9,3.3l-1.3,13.3c-12.7-0.2-21-0.3-24.8-0.3c-3.5,0-5.8,0.3-7,0.9s-1.8,1.8-1.8,3.8
			c0,1.7,0.5,2.9,1.5,3.8s2.9,1.8,5.6,2.8l13.7,5.3c6,2.4,10.2,5.3,12.6,8.7c2.4,3.5,3.7,8,3.7,13.6c0,8.4-2.1,14.2-6.3,17.4
			s-11.8,4.8-22.8,4.8c-9.5,0-18.6-1.1-27.3-3.2l1.2-14.4c14.8,0.4,23.4,0.5,26,0.5c3.6,0,6-0.3,7.2-0.9c1.2-0.6,1.8-1.9,1.8-3.7
			c0-1.7-0.4-3-1.2-3.8C560.9,126.1,559.3,125.2,557,124.4z"/>
		<path class="st4" d="M613.3,150.9h-20.1V76.4h20.1V150.9z"/>
		<path class="st4" d="M684.6,92.1h-21.5V151h-20.3V92.1h-21.4V76.4h63.2V92.1z"/>
		<path class="st4" d="M745,135.5l1,14.6c-7.1,0.8-19.4,1.2-36.9,1.2c-5.1,0-9.2-1.5-12.3-4.4s-4.6-6.8-4.6-11.6V92.1
			c0-4.8,1.6-8.7,4.7-11.6s7.2-4.4,12.3-4.4c17.6,0,29.9,0.4,36.9,1.2l-1,14.6h-28c-3.1,0-4.6,1.5-4.6,4.6v9.1H741v13.9h-28.6v11.3
			c0,3.1,1.5,4.6,4.6,4.6h28V135.5z"/>
		<path class="st4" d="M784.4,124.4l-14.9-5.9c-5.8-2.4-10-5.3-12.4-8.7c-2.4-3.4-3.7-7.9-3.7-13.4c0-8.4,2.1-14,6.4-16.9
			c4.2-2.9,11.8-4.4,22.7-4.4c10.4,0,19.1,1.1,25.9,3.3l-1.3,13.3c-12.7-0.2-21-0.3-24.8-0.3c-3.5,0-5.8,0.3-7,0.9s-1.8,1.8-1.8,3.8
			c0,1.7,0.5,2.9,1.5,3.8s2.9,1.8,5.6,2.8l13.7,5.3c6,2.4,10.2,5.3,12.6,8.7c2.4,3.5,3.7,8,3.7,13.6c0,8.4-2.1,14.2-6.3,17.4
			s-11.8,4.8-22.8,4.8c-9.5,0-18.6-1.1-27.3-3.2l1.2-14.4c14.8,0.4,23.4,0.5,26,0.5c3.6,0,6-0.3,7.2-0.9c1.2-0.6,1.8-1.9,1.8-3.7
			c0-1.7-0.4-3-1.2-3.8C788.2,126.1,786.7,125.2,784.4,124.4z"/>
	</g>
</g>
<g class="st0">
	<path class="st3" d="M339.5,185.7l-8.6,26.5c-0.2,0.7-0.7,1.1-1.5,1.1H326c-0.8,0-1.3-0.4-1.5-1.2l-5.5-19.8
		c-0.2-0.5-0.3-1.2-0.6-2.1c-0.2-0.9-0.4-1.7-0.5-2.2h-0.6l-1.1,4.3l-5.4,19.8c-0.2,0.8-0.7,1.2-1.5,1.2H306c-0.8,0-1.3-0.4-1.5-1.1
		l-8.6-26.5h3.8l6.5,21.1c0.2,0.6,0.6,2,1.1,4h0.7l1.1-4l5.5-20c0.2-0.8,0.7-1.1,1.4-1.1h3.3c0.8,0,1.2,0.4,1.4,1.2l5.5,19.9l1,4
		h0.8c0.6-2.2,0.9-3.5,1-4l6.6-21.1L339.5,185.7L339.5,185.7z"/>
	<path class="st3" d="M361.9,201.3h-13.8c0.2,3.6,1.1,6.2,2.5,7.5c1.4,1.4,3.8,2.1,7.1,2.1c2.9,0,6-0.2,9.5-0.7l0.4,2.5
		c-2.4,0.9-5.8,1.4-10.4,1.4s-7.9-1.1-9.9-3.3s-2.9-6-2.9-11.3s0.9-9.1,2.9-11.2c1.9-2.1,5.1-3.2,9.5-3.2c3.9,0,6.8,0.7,8.7,2.1
		c1.9,1.4,2.8,3.6,2.9,6.5C368.3,198.7,366.2,201.3,361.9,201.3z M348.1,198.5H361c2.4,0,3.6-1.6,3.5-4.8c0-1.9-0.7-3.3-1.9-4.2
		c-1.2-0.9-3.2-1.3-5.8-1.3c-3.2,0-5.5,0.8-6.8,2.3C348.8,191.9,348.2,194.6,348.1,198.5z"/>
	<path class="st3" d="M379.7,173.4v11.1c0,2.7-0.1,4.6-0.4,5.9c3.7-3.6,7.3-5.4,10.9-5.4c3.5,0,6.1,1.1,7.7,3.4
		c1.6,2.2,2.4,5.9,2.4,11.1c0,5.1-0.9,8.7-2.7,11.1c-1.8,2.3-4.8,3.5-9.2,3.5c-4.2,0-8.3-0.6-12.3-1.9v-38.7h3.6V173.4z
		 M379.7,192.9v16.9c2.8,0.8,5.7,1.2,8.7,1.1c3,0,5.1-0.9,6.3-2.6c1.2-1.7,1.9-4.7,1.9-8.8c0-4.2-0.5-7.2-1.6-8.8
		c-1-1.7-3-2.5-5.7-2.5c-1.5,0-2.9,0.4-4.3,1.1C383.5,190,381.8,191.2,379.7,192.9z"/>
	<path class="st3" d="M425.5,200.4H408v-2.8h17.5V200.4z"/>
	<path class="st3" d="M447.6,201.6l-8.4-1.6c-2.2-0.4-3.7-1.2-4.7-2.4s-1.5-2.9-1.5-5.2c0-3.1,0.8-5.2,2.4-6.1
		c1.6-1,4.3-1.4,8.2-1.4c4.2,0.1,7.9,0.4,11.3,0.9l-0.3,2.6c-4.6-0.2-8.1-0.3-10.5-0.3c-3,0-5.1,0.2-6,0.7c-1,0.5-1.5,1.7-1.5,3.7
		c0,1.6,0.3,2.6,1,3.2c0.6,0.6,1.7,1.1,3.2,1.4l8.5,1.6c2.2,0.5,3.8,1.2,4.8,2.4c1,1.1,1.5,2.8,1.5,5c0,3.2-0.9,5.3-2.6,6.3
		s-4.7,1.5-8.9,1.5c-3.8,0-7.3-0.2-10.5-0.7l0.3-2.7c3,0.3,6.2,0.4,9.6,0.3c3.4,0,5.7-0.4,6.8-0.9c1.2-0.6,1.7-1.9,1.7-3.8
		c0-1.5-0.4-2.5-1.1-3.1S449.2,202,447.6,201.6z"/>
	<path class="st3" d="M477.5,210.5l0.5,2.7c-1.9,0.4-3.8,0.6-5.8,0.6c-4.6,0-6.8-2.3-6.8-6.9v-18.3h-5V186l5-0.3v-8.4h3.6v8.4h9.3
		v2.8H469v17.9c0,2.7,1.3,4,4,4h4.5V210.5z"/>
	<path class="st3" d="M507.2,185.7v27.6h-2.8l-0.3-4.3c-4.3,3.3-8.3,5-12.3,5c-5,0-7.5-2.5-7.5-7.5v-20.7h3.6v19.8
		c0,1.9,0.4,3.3,1.2,4.1s2.1,1.3,3.9,1.3c1.6,0,3.1-0.4,4.7-1.1c1.6-0.7,3.5-1.9,5.9-3.5v-20.6h3.6L507.2,185.7L507.2,185.7z"/>
	<path class="st3" d="M536.9,213.3l-0.4-4.3c-3.8,3.3-7.4,5-11.1,5c-3.5,0-6-1.2-7.6-3.5c-1.5-2.3-2.3-6-2.3-11.1
		c0-5.2,0.8-9,2.5-11.2c1.6-2.2,4.3-3.3,7.9-3.3c3.5,0,7,0.9,10.4,2.7c-0.2-1.3-0.2-3.1-0.2-5.4v-8.8h3.6v39.9L536.9,213.3
		L536.9,213.3z M536.1,206.4v-16.2c-3.9-1.3-7.1-2-9.5-2c-2.7,0-4.6,0.8-5.7,2.4c-1.1,1.6-1.6,4.6-1.6,8.8c0,4.3,0.5,7.3,1.6,8.9
		c1.1,1.7,2.9,2.5,5.5,2.5c1.6,0,3-0.3,4.4-1S533.9,208.1,536.1,206.4z"/>
	<path class="st3" d="M550.5,174.1h1.7c0.8,0,1.2,0.4,1.2,1.2v3.3c0,0.8-0.4,1.2-1.2,1.2h-1.7c-0.8,0-1.2-0.4-1.2-1.2v-3.3
		C549.3,174.5,549.7,174.1,550.5,174.1z M553.1,213.3h-3.6v-27.6h3.6V213.3z"/>
	<path class="st3" d="M564.4,188.3c1.9-2.2,5.2-3.3,9.8-3.3s7.9,1.1,9.8,3.3s2.9,5.9,2.9,11.3c0,5.3-1,9.1-2.9,11.2
		s-5.2,3.2-9.8,3.2s-7.9-1.1-9.8-3.3c-1.9-2.2-2.9-5.9-2.9-11.2S562.4,190.5,564.4,188.3z M581.2,190.6c-1.3-1.6-3.6-2.5-7-2.5
		s-5.7,0.8-7,2.5s-1.9,4.6-1.9,8.9s0.6,7.3,1.9,8.9c1.3,1.6,3.6,2.5,7,2.5s5.7-0.8,7-2.5c1.3-1.6,1.9-4.6,1.9-8.9
		S582.4,192.2,581.2,190.6z"/>
</g>
</svg>
