<?xml version="1.0" encoding="utf-8"?>
<!-- Generator: Adobe Illustrator 22.0.1, SVG Export Plug-In . SVG Version: 6.00 Build 0)  -->
<svg version="1.1" id="Capa_1" xmlns="http://www.w3.org/2000/svg" xmlns:xlink="http://www.w3.org/1999/xlink" x="0px" y="0px"
	 viewBox="0 0 38 38" style="enable-background:new 0 0 38 38;" xml:space="preserve">
<style type="text/css">
	.st0{fill:#797877;}
</style>
<g>
	<path class="st0" d="M19,0C11.1,0,4.7,6.4,4.7,14.3c0,11.4,12.8,22.8,13.3,23.3c0.3,0.3,0.6,0.4,1,0.4c0.4,0,0.7-0.1,1-0.4
		c0.5-0.5,13.3-12.6,13.3-23.3C33.3,6.4,26.9,0,19,0z M19,21.2c-3.8,0-6.8-3.1-6.8-6.8s3.1-6.8,6.8-6.8c3.8,0,6.8,3.1,6.8,6.8
		S22.8,21.2,19,21.2z"/>
</g>
</svg>
