<svg version="1.1" xmlns="http://www.w3.org/2000/svg" xmlns:xlink="http://www.w3.org/1999/xlink" x="0px" y="0px"
	 width="512px" height="512px" viewBox="0 0 512 512"  xml:space="preserve">
<style type="text/css">
	.st0{fill:#0DA9BA;}
</style>
	<path class="st0" d="M498.6,395L395,325.9c-13.2-8.7-30.8-5.8-40.5,6.6l-30.2,38.8c-3.9,5.1-10.9,6.6-16.5,3.5l-5.7-3.2
		c-19-10.4-42.7-23.3-90.5-71c-47.7-47.7-60.7-71.5-71-90.5l-3.1-5.7c-3.2-5.6-1.7-12.7,3.4-16.6l38.8-30.2
		c12.4-9.7,15.3-27.4,6.6-40.5L117,13.4C108.1,0,90.2-4,76.4,4.3l-43.3,26c-13.6,8-23.6,21-27.9,36.2C3.3,73.9,1.9,81.4,1,89
		c-1.4,12.1-1.4,24.4,0,36.6C3.4,145,8.2,164,15.3,182.2c14.2,35.7,33.4,69.2,56.8,99.6c0.1,0.1,0.1,0.2,0.2,0.3
		c1.6,2.3,3.3,4.5,5,6.6c0.3,0.3,0.5,0.6,0.8,0.9c6.6,8.4,13.2,16.6,20.1,24.7c0.3,0.4,0.5,0.8,0.9,1.2c0.3,0.3,0.6,0.6,0.9,0.9
		c7,8.2,14.2,16.3,21.5,24.2c0.2,0.2,0.4,0.5,0.6,0.7l1.1,1.2c7.4,8,15,15.9,22.7,23.7c115,115,200.6,145.9,259.5,145.9
		c13.5,0.1,27-1.7,40.1-5.2c15.2-4.3,28.2-14.3,36.2-27.9l26.1-43.3C516,421.8,512,403.9,498.6,395z"/>
	<path class="st0" d="M290.1,85.4c80.1,0.1,145,65,145.1,145.1c0,4.7,3.8,8.5,8.5,8.5s8.5-3.8,8.5-8.5
		c-0.1-89.5-72.6-162-162.1-162.1c-4.7,0-8.5,3.8-8.5,8.5C281.6,81.6,285.4,85.4,290.1,85.4z"/>
	<path class="st0" d="M290.1,136.6c51.8,0.1,93.8,42.1,93.9,93.9c0,4.7,3.8,8.5,8.5,8.5s8.5-3.8,8.5-8.5
		c-0.1-61.2-49.7-110.9-110.9-110.9c-4.7,0-8.5,3.8-8.5,8.5C281.6,132.8,285.4,136.6,290.1,136.6z"/>
	<path class="st0" d="M290.1,187.8c23.6,0,42.6,19.1,42.7,42.7c0,4.7,3.8,8.5,8.5,8.5s8.5-3.8,8.5-8.5c0-33-26.8-59.7-59.7-59.7
		c-4.7,0-8.5,3.8-8.5,8.5S285.4,187.8,290.1,187.8z"/>
</svg>
