<?xml version="1.0" encoding="utf-8"?>
<!-- Generator: Adobe Illustrator 23.0.2, SVG Export Plug-In . SVG Version: 6.00 Build 0)  -->
<svg version="1.1" id="Слой_1" xmlns="http://www.w3.org/2000/svg" xmlns:xlink="http://www.w3.org/1999/xlink" x="0px" y="0px"
	 width="10.7px" height="5.7px" viewBox="0 0 10.7 5.7" style="enable-background:new 0 0 10.7 5.7;" xml:space="preserve">
<style type="text/css">
	.st0{fill:#19487F;}
</style>
<path class="st0" d="M10.5,0.2c-0.2-0.2-0.6-0.2-0.9,0l-4.3,4l-4.3-4c-0.2-0.2-0.6-0.2-0.9,0C0.1,0.3,0,0.5,0,0.6
	c0,0.2,0.1,0.3,0.2,0.4l4.7,4.5C5,5.6,5.2,5.7,5.3,5.7s0.3-0.1,0.4-0.2l4.7-4.5c0.1-0.1,0.2-0.3,0.2-0.4C10.7,0.5,10.6,0.3,10.5,0.2
	z"/>
</svg>
