<?xml version="1.0" encoding="utf-8"?>
<!-- Generator: Adobe Illustrator 22.0.1, SVG Export Plug-In . SVG Version: 6.00 Build 0)  -->
<svg version="1.1" id="Capa_1" xmlns="http://www.w3.org/2000/svg" xmlns:xlink="http://www.w3.org/1999/xlink" x="0px" y="0px"
	 viewBox="0 0 46.4 46.4" style="enable-background:new 0 0 46.4 46.4;" xml:space="preserve">
<style type="text/css">
	.st0{fill:#FF974A;}
</style>
<g>
	<path class="st0" d="M21.6,2c0.3-0.6,0.9-1,1.6-1s1.3,0.4,1.6,1l5.8,11.7c0.3,0.5,0.8,0.9,1.4,1l12.9,1.9c0.7,0.1,1.2,0.6,1.4,1.2
		s0,1.4-0.5,1.8l-9.3,9.1c-0.4,0.4-0.6,1-0.5,1.6l2.2,12.9c0.1,0.7-0.2,1.4-0.7,1.8c-0.6,0.4-1.3,0.5-1.9,0.1L24,39
		c-0.5-0.3-1.1-0.3-1.7,0l-11.5,6.1c-0.6,0.3-1.3,0.3-1.9-0.1c-0.6-0.4-0.8-1.1-0.7-1.8l2.2-12.9c0.1-0.6-0.1-1.2-0.5-1.6l-9.3-9.1
		c-0.5-0.5-0.7-1.2-0.5-1.8s0.8-1.1,1.4-1.2l12.9-1.9c0.6-0.1,1.1-0.5,1.4-1L21.6,2z"/>
</g>
</svg>
