<?xml version="1.0" encoding="utf-8"?>
<!-- Generator: Adobe Illustrator 23.0.2, SVG Export Plug-In . SVG Version: 6.00 Build 0)  -->
<svg version="1.1" id="Layer_1" xmlns="http://www.w3.org/2000/svg" xmlns:xlink="http://www.w3.org/1999/xlink" x="0px" y="0px"
	 width="512px" height="448.4px" viewBox="0 0 512 448.4" style="enable-background:new 0 0 512 448.4;" xml:space="preserve">
<style type="text/css">
	.st0{fill:#3BAECC;}
</style>
<g>
	<g>
		<g>
			<path class="st0" d="M385.3,90.1L174.7,219.8c-11.9,7.4-17.6,21.9-13.7,35.3l22.8,80c1.9,6.8,8,11.4,15,11.4c0.4,0,0.8,0,1.2,0
				c7.5-0.5,13.4-6.1,14.4-13.5l5.9-43.9c0.8-5.9,3.6-11.4,8-15.5L402,112.1c5.3-4.9,5.9-12.8,1.6-18.5
				C399.3,87.8,391.4,86.4,385.3,90.1z M214.3,258.7c-7.8,7.3-12.9,17.1-14.3,27.7l-2.9,21.3l-16.5-58.1c-1.3-4.7,0.6-9.8,4.8-12.4
				l154.3-95L214.3,258.7z"/>
			<path class="st0" d="M503.7,5.6C497.1,0,488-1.5,480,1.6L15.1,180.9C5.9,184.5,0,193.1,0,203s6.1,18.5,15.3,22l108.6,40.5
				l42.4,136.2c2.3,7.5,8.2,13.3,15.7,15.6c7.5,2.3,15.6,0.6,21.7-4.3l63.1-51.5c3-2.5,7.4-2.6,10.5-0.3l113.9,82.7
				c4.1,3,8.9,4.5,13.8,4.5c2.9,0,5.7-0.5,8.5-1.6c7.5-2.9,12.9-9.3,14.6-17.2l83.4-401.3C513.3,19.9,510.3,11.2,503.7,5.6z
				 M491.5,24.2l-83.4,401.3c-0.3,1.5-1.3,2.1-1.9,2.3c-0.6,0.2-1.8,0.5-3-0.4l-113.9-82.7c-5.1-3.7-11.1-5.5-17.1-5.5
				c-6.5,0-13,2.2-18.3,6.5l-63.2,51.5c-1.1,0.9-2.3,0.8-2.9,0.6c-0.6-0.2-1.7-0.7-2.1-2.1l-43.8-141c-0.9-3-3.2-5.4-6.2-6.5
				L22.5,205.9c-1.7-0.6-2.1-2-2.1-3s0.3-2.3,2-3L487.3,20.6l0,0c1.5-0.6,2.6,0.1,3.2,0.5C491,21.6,491.9,22.6,491.5,24.2z"/>
		</g>
	</g>
</g>
<g>
	<g>
		<path class="st0" d="M427.5,220.3c-5.5-1.2-10.9,2.3-12.1,7.8l-1.5,7.1c-1.2,5.5,2.3,10.9,7.8,12.1c0.7,0.2,1.5,0.2,2.2,0.2
			c4.7,0,8.9-3.3,10-8l1.5-7.1C436.5,227,433,221.5,427.5,220.3z"/>
	</g>
</g>
<g>
	<g>
		<path class="st0" d="M417.3,267.3c-5.5-1.2-10.9,2.3-12.1,7.8l-23.5,108.1c-1.2,5.5,2.3,10.9,7.8,12.1c0.7,0.2,1.5,0.2,2.2,0.2
			c4.7,0,8.9-3.3,10-8l23.5-108.1C426.3,274,422.8,268.5,417.3,267.3z"/>
	</g>
</g>
</svg>
