<?xml version="1.0" encoding="utf-8"?>
<!-- Generator: Adobe Illustrator 23.0.2, SVG Export Plug-In . SVG Version: 6.00 Build 0)  -->
<svg version="1.1" id="Layer_1" xmlns="http://www.w3.org/2000/svg" xmlns:xlink="http://www.w3.org/1999/xlink" x="0px" y="0px"
	 width="475px" height="526.1px" viewBox="0 0 475 526.1" style="enable-background:new 0 0 475 526.1;" xml:space="preserve">
<style type="text/css">
	.st0{fill:#7D3DAF;stroke:#FFFFFF;stroke-width:14.1732;stroke-miterlimit:10;}
	.st1{fill:#FFFFFF;stroke:#FFFFFF;stroke-width:2.126;stroke-miterlimit:10;}
</style>
<path class="st0" d="M416.7,60.8c-3.1-3.2-25.8-21.9-29.5-24.3C358,17.3,324,7.1,288.8,7.1H186.2C87.4,7.1,7.1,87.4,7.1,186.2v77
	c0,69.4,40.1,132.4,102.6,162v85.9c0,7,8.7,10.6,13.7,5.7l74.6-74.6h90.8c98.7,0,179.1-80.3,179.1-179.1v-77
	C467.9,139,449.7,94.5,416.7,60.8z"/>
<path class="st1" d="M359.2,325.4l-7.7-41.7c-0.6-3.2-3.1-5.8-6.3-6.4l-60.5-12.1c-2.6-0.5-5.3,0.3-7.2,2.2l-24.8,24.8
	c-41.8-18.7-65-41.9-85.3-85.5l24.8-24.8c1.9-1.9,2.7-4.6,2.2-7.2l-12.1-60.5c-0.6-3.2-3.2-5.7-6.4-6.3l-41.7-7.7
	c-1.1-0.2-2.2-0.2-3.2,0.1c-10.9,2.5-20.8,8-28.8,15.9c-13.7,13.7-18.9,33.7-15.1,57.9c1.7,11,4.3,22.4,7.7,33.9
	c1.2,4.3,9.7,28.4,11.5,32.5c11.6,27.3,26.8,50.9,44.1,68.2l0.5,0.5c37,36.8,93.8,56.8,134.6,63.3c5.1,0.8,10.1,1.2,14.8,1.2
	c17.6,0,32.3-5.5,43.1-16.3c7.9-7.9,13.4-17.9,15.9-28.8C359.3,327.6,359.4,326.5,359.2,325.4z"/>
<g>
	<g>
		<path class="st1" d="M254.6,152.5c-4.4,0-8,3.6-8,8s3.6,8,8,8c19.2,0,34.7,15.6,34.7,34.7c0,4.4,3.6,8,8,8s8-3.6,8-8
			C305.4,175.3,282.6,152.5,254.6,152.5z"/>
	</g>
</g>
<g>
	<g>
		<path class="st1" d="M254.6,118.3c-3.1,0-6.3,0.2-9.4,0.5c-4.4,0.5-7.6,4.4-7.1,8.8s4.4,7.6,8.8,7.1c2.5-0.3,5.1-0.4,7.7-0.4
			c38,0,69,30.9,69,69c0,2.6-0.1,5.1-0.4,7.7c-0.5,4.4,2.7,8.4,7.1,8.9c4.3,0.5,8.4-2.7,8.8-7.1c0.3-3.1,0.5-6.3,0.5-9.4
			C339.6,156.4,301.4,118.3,254.6,118.3z"/>
	</g>
</g>
<g>
	<g>
		<path class="st1" d="M254.6,84.1c-3,0-6.1,0.1-9.2,0.3c-4.4,0.3-7.7,4.2-7.4,8.6s4.2,7.7,8.6,7.4c2.6-0.2,5.3-0.3,7.9-0.3
			c56.9,0,103.2,46.3,103.2,103.2c0,8-0.9,16.1-2.8,23.8c-1,4.2,1.6,8.5,5.8,9.6c4.3,1.1,8.8-1.6,9.8-5.9c2.1-9,3.2-18.2,3.2-27.5
			C373.8,137.5,320.3,84.1,254.6,84.1z"/>
	</g>
</g>
</svg>
