<?xml version="1.0" encoding="utf-8"?>
<!-- Generator: Adobe Illustrator 23.0.2, SVG Export Plug-In . SVG Version: 6.00 Build 0)  -->
<svg version="1.1" id="Layer_1" xmlns="http://www.w3.org/2000/svg" xmlns:xlink="http://www.w3.org/1999/xlink" x="0px" y="0px"
	 width="462.9px" height="514.1px" viewBox="0 0 462.9 514.1" style="enable-background:new 0 0 462.9 514.1;" xml:space="preserve"
	>
<style type="text/css">
	.st0{fill:#7D3DAF;stroke:#7D3DAF;stroke-width:2.126;stroke-miterlimit:10;}
</style>
<g>
	<g>
		<path class="st0" d="M410.7,54.8c-3.1-3.2-8.2-3.2-11.3-0.1c-3.2,3.1-3.2,8.2-0.1,11.3c30,30.7,46.6,71.2,46.6,114.1v77
			c0,89.9-73.1,163-163,163h-94.1c-2.1,0-4.2,0.8-5.7,2.3l-63.3,63.3v-71.9c0-3.2-1.9-6.1-4.8-7.3C55.5,380.6,17.1,322,17.1,257.1
			v-77c0-89.9,73.1-163,163-163h102.6c32,0,63,9.3,89.7,26.8c3.7,2.4,8.7,1.4,11.1-2.3s1.4-8.7-2.3-11.1C352,11.3,318,1.1,282.8,1.1
			H180.2C81.4,1.1,1.1,81.4,1.1,180.2v77c0,69.4,40.1,132.4,102.6,162v85.9c0,7,8.7,10.6,13.7,5.7l74.6-74.6h90.8
			c98.7,0,179.1-80.3,179.1-179.1v-77C461.9,133,443.7,88.5,410.7,54.8z"/>
	</g>
</g>
<g>
	<g>
		<path class="st0" d="M360.1,319.4l-7.7-41.7c-0.6-3.2-3.1-5.8-6.3-6.4l-60.5-12.1c-2.6-0.5-5.3,0.3-7.2,2.2l-24.8,24.8
			c-41.8-18.7-65-41.9-85.3-85.5l24.8-24.8c1.9-1.9,2.7-4.6,2.2-7.2l-12.1-60.5c-0.6-3.2-3.2-5.7-6.4-6.3l-41.7-7.7
			c-1.1-0.2-2.2-0.2-3.2,0.1c-10.9,2.5-20.8,8-28.8,15.9c-13.7,13.7-18.9,33.7-15.1,57.9c1.7,11,4.3,22.4,7.7,33.9
			c1.2,4.3,5.7,6.7,9.9,5.5c4.3-1.2,6.7-5.7,5.5-9.9c-3.2-10.8-5.6-21.6-7.2-31.9c-3-19.2,0.6-34,10.6-44.1
			c5.4-5.4,12.1-9.3,19.4-11.2l34.6,6.4l10.2,50.9L153,193.4c-2.3,2.4-3,5.9-1.7,8.9c23.3,52.2,50.7,79.6,101,100.9
			c3,1.3,6.5,0.6,8.8-1.7l25.7-25.7l50.9,10.2l6.4,34.6c-2,7.3-5.8,14-11.2,19.4c-10.1,10.1-24.9,13.6-44.1,10.6
			c-38.3-6-91.5-24.6-125.8-58.8l-0.5-0.5c-15.8-15.8-29.8-37.6-40.6-63.1c-1.7-4.1-6.4-6-10.5-4.2c-4.1,1.7-6,6.4-4.2,10.5
			c11.6,27.3,26.8,50.9,44.1,68.2l0.5,0.5c37,36.8,93.8,56.8,134.6,63.3c5.1,0.8,10.1,1.2,14.8,1.2c17.6,0,32.3-5.5,43.1-16.3
			c7.9-7.9,13.4-17.9,15.9-28.8C360.2,321.6,360.3,320.5,360.1,319.4z"/>
	</g>
</g>
<g>
	<g>
		<path class="st0" d="M248.6,146.5c-4.4,0-8,3.6-8,8s3.6,8,8,8c19.2,0,34.7,15.6,34.7,34.7c0,4.4,3.6,8,8,8s8-3.6,8-8
			C299.4,169.3,276.6,146.5,248.6,146.5z"/>
	</g>
</g>
<g>
	<g>
		<path class="st0" d="M248.6,112.3c-3.1,0-6.3,0.2-9.4,0.5c-4.4,0.5-7.6,4.4-7.1,8.8s4.4,7.6,8.8,7.1c2.5-0.3,5.1-0.4,7.7-0.4
			c38,0,69,30.9,69,69c0,2.6-0.1,5.1-0.4,7.7c-0.5,4.4,2.7,8.4,7.1,8.9c4.3,0.5,8.4-2.7,8.8-7.1c0.3-3.1,0.5-6.3,0.5-9.4
			C333.6,150.4,295.4,112.3,248.6,112.3z"/>
	</g>
</g>
<g>
	<g>
		<path class="st0" d="M248.6,78.1c-3,0-6.1,0.1-9.2,0.3c-4.4,0.3-7.7,4.2-7.4,8.6s4.2,7.7,8.6,7.4c2.6-0.2,5.3-0.3,7.9-0.3
			c56.9,0,103.2,46.3,103.2,103.2c0,8-0.9,16.1-2.8,23.8c-1,4.2,1.6,8.5,5.8,9.6c4.3,1.1,8.8-1.6,9.8-5.9c2.1-9,3.2-18.2,3.2-27.5
			C367.8,131.5,314.3,78.1,248.6,78.1z"/>
	</g>
</g>
</svg>
