<?xml version="1.0" encoding="utf-8"?>
<!-- Generator: Adobe Illustrator 23.0.2, SVG Export Plug-In . SVG Version: 6.00 Build 0)  -->
<svg version="1.1" id="Layer_1" xmlns="http://www.w3.org/2000/svg" xmlns:xlink="http://www.w3.org/1999/xlink" x="0px" y="0px"
	 width="441.8px" height="441.8px" viewBox="0 0 441.8 441.8" style="enable-background:new 0 0 441.8 441.8;" xml:space="preserve"
	>
<style type="text/css">
	.st0{fill:#50A35D;stroke:#50A35D;stroke-width:1.4173;stroke-miterlimit:10;}
</style>
<path class="st0" d="M220.1,0.7C99.4,0.7,0.7,98.5,0.7,219.1c0,43.2,12.3,83.7,34.4,119.8l3.5,4.4L14.8,427l86.3-22l4.4,2.6
	c36.1,22,75.8,33.5,114.5,33.5c121.6,0,221.1-99.5,221.1-222C441.2,98.5,341.6,0.7,220.1,0.7z M219.2,424.4
	c-35.2,0-71.4-11.5-104.8-31.7l-10.6-7l-64.3,15.9l17.6-61.7l-7-11.5c-21.2-32.6-31.7-70.5-31.7-109.3
	c0-110.1,90.7-200.8,201.7-200.8c111.9,0,203.5,90.7,203.5,200.8C423.6,331.9,332,423.5,219.2,424.4z"/>
<path class="st0" d="M343,265.4l-52.9-24.3c-7.6-3.4-15.1-0.8-20.1,5l-20.1,26c-15.1-5.9-57.1-24.3-81.4-69.7l18.5-21.8
	c4.2-5,5-11.8,2.5-17.6l-22.7-53.7c-2.5-5.9-7.6-10.1-14.3-10.1l-15.9-0.8c-6.7,0-14.3,1.7-19.3,6.7c-7.6,6.7-21.8,21-26,40.3
	c-5.9,27.7,3.4,60.4,26.9,92.3c14.3,20.1,57.9,79.7,141.8,103.2c8.4,2.5,16.8,3.4,24.3,3.4c14.3,0,27.7-4.2,39.4-10.9
	c13.4-8.4,22.7-22.7,26-37.8l2.5-11.8C353.9,276.3,349.7,268.7,343,265.4z M332.1,291.4c-2.5,10.9-9.2,21-18.5,26.9
	c-14.3,9.2-31.1,10.9-49.5,5.9c-78.1-21.8-119.2-78.1-132.6-96.5C111.4,200,103,171.5,108,148.8c3.4-15.1,14.3-26,21-31.9
	c1.7-1.7,4.2-2.5,6.7-2.5l16.8,1.7l22.7,52.9l-20.1,22.7c-3.4,4.2-4.2,10.9-1.7,15.9c27.7,53.7,78.1,74.7,93.2,79.7
	c5.9,1.7,11.8,0,15.9-5l20.1-26.9l52.9,24.3L332.1,291.4z"/>
</svg>
