<?xml version="1.0" encoding="utf-8"?>
<!-- Generator: Adobe Illustrator 23.0.2, SVG Export Plug-In . SVG Version: 6.00 Build 0)  -->
<svg version="1.1" id="Capa_1" xmlns="http://www.w3.org/2000/svg" xmlns:xlink="http://www.w3.org/1999/xlink" x="0px" y="0px"
	 width="511.6px" height="365.5px" viewBox="0 0 511.6 365.5" style="enable-background:new 0 0 511.6 365.5;" xml:space="preserve"
	>
<style type="text/css">
	.st0{fill:#EF2B47;}
</style>
<g>
	<path class="st0" d="M511.3,139.9c-0.2-10.3-1-23.3-2.4-39c-1.4-15.7-3.5-29.7-6.1-42.1c-3-13.9-9.7-25.6-19.8-35.1
		c-10.2-9.5-22-15-35.5-16.6C405.1,2.4,341.3,0,255.8,0C170.4,0,106.5,2.4,64.2,7.1c-13.5,1.5-25.3,7-35.4,16.6
		C18.7,33.2,12.2,44.9,9.1,58.8c-2.9,12.4-5,26.4-6.4,42.1c-1.4,15.7-2.2,28.7-2.4,39C0.1,150.2,0,164.5,0,182.7
		c0,18.3,0.1,32.6,0.3,42.8c0.2,10.3,1,23.3,2.4,39c1.4,15.7,3.5,29.7,6.1,42.1c3,13.9,9.7,25.6,19.8,35.1c10.2,9.5,22,15,35.5,16.6
		c42.3,4.8,106.1,7.1,191.6,7.1c85.5,0,149.3-2.4,191.6-7.1c13.5-1.5,25.3-7,35.4-16.6c10.1-9.5,16.7-21.2,19.7-35.1
		c2.9-12.4,5-26.4,6.4-42.1c1.4-15.7,2.2-28.7,2.4-39c0.2-10.3,0.3-24.6,0.3-42.8C511.6,164.5,511.5,150.2,511.3,139.9z
		 M356.9,198.1l-146.2,91.4c-2.7,1.9-5.9,2.9-9.7,2.9c-2.9,0-5.8-0.8-8.8-2.3c-6.3-3.4-9.4-8.8-9.4-16V91.4c0-7.2,3.1-12.6,9.4-16
		c6.5-3.4,12.7-3.2,18.6,0.6l146.2,91.4c5.7,3.2,8.6,8.4,8.6,15.4C365.4,189.8,362.6,194.9,356.9,198.1z"/>
</g>
</svg>
