<?xml version="1.0" encoding="utf-8"?>
<!-- Generator: Adobe Illustrator 23.1.0, SVG Export Plug-In . SVG Version: 6.00 Build 0)  -->
<svg version="1.1" id="Слой_1" xmlns="http://www.w3.org/2000/svg" xmlns:xlink="http://www.w3.org/1999/xlink" x="0px" y="0px"
	 width="46.2px" height="19px" viewBox="0 0 46.2 19" style="enable-background:new 0 0 46.2 19;" xml:space="preserve">
<style type="text/css">
	.st0{clip-path:url(#SVGID_2_);}
	.st1{fill:#0071C2;}
</style>
<g>
	<defs>
		<rect id="SVGID_1_" x="0.2" y="-14" width="46" height="45.8"/>
	</defs>
	<clipPath id="SVGID_2_">
		<use xlink:href="#SVGID_1_"  style="overflow:visible;"/>
	</clipPath>
	<g class="st0">
		<path class="st1" d="M45.7,17.6c0-0.2-0.3-1.6-1.6-3.1c-1.1-1.4-3.3-2.9-7.1-2.8c-1.1,0-3.8,0.1-7.9,0.1l-9-11.1
			c-0.1-0.2-0.3-0.3-0.5-0.3c-0.2-0.1-0.4-0.1-0.6,0l-1.6,0.3c-0.1,0-0.3,0.1-0.4,0.2C17,1,16.9,1.1,16.8,1.2
			c-0.1,0.1-0.1,0.3-0.1,0.4c0,0.1,0,0.3,0,0.4l3.2,9.9c-3.7,0-7.4,0-10.4,0l-4-6.1C5.3,5.6,5.2,5.5,5,5.4C4.8,5.3,4.6,5.3,4.3,5.3
			L2.8,5.7C2.5,5.7,2.2,5.9,2.1,6.1C1.9,6.4,1.9,6.7,1.9,6.9l0.9,4.3l-1.3,0h0c-0.3,0-0.6,0.1-0.8,0.3c-0.2,0.2-0.3,0.5-0.3,0.8
			c0,0.3,0.1,0.6,0.3,0.8c0.2,0.2,0.5,0.3,0.8,0.3l1.6,0l-0.6,2.1c-0.1,0.3,0,0.6,0.1,0.8c0.1,0.2,0.4,0.4,0.7,0.5l8.3,2.2
			c0.1,0,0.2,0,0.3,0l32.8-0.2c0.2,0,0.3,0,0.5-0.1c0.1-0.1,0.3-0.2,0.4-0.3c0.1-0.1,0.2-0.3,0.2-0.4C45.8,17.9,45.8,17.8,45.7,17.6
			z M30.4,16.8l-6.7,0L19.3,3.1L30.4,16.8z M4.9,15l0.4-1.6c0,0,0.4,0,0.4,0c0.3,0,0.6-0.1,0.8-0.3c0.2-0.2,0.3-0.5,0.3-0.8
			c0-0.3-0.1-0.6-0.3-0.8c-0.2-0.2-0.5-0.3-0.8-0.3l-0.7,0L4.4,8.1L8,13.6c0.1,0.1,0.2,0.3,0.4,0.4c0.2,0.1,0.3,0.1,0.5,0.1
			c3.2,0,7.5,0,11.6,0l0.9,2.8L12,16.9L4.9,15z M33.2,16.8L30.9,14c2.5,0,5.1-0.1,6.2-0.1c3.6-0.2,5.3,1.6,6,2.8L33.2,16.8z"/>
	</g>
</g>
</svg>
