<?xml version="1.0" encoding="utf-8"?>
<!-- Generator: Adobe Illustrator 23.1.0, SVG Export Plug-In . SVG Version: 6.00 Build 0)  -->
<svg version="1.1" id="Слой_1" xmlns="http://www.w3.org/2000/svg" xmlns:xlink="http://www.w3.org/1999/xlink" x="0px" y="0px"
	 width="34px" height="40px" viewBox="0 0 34 40" style="enable-background:new 0 0 34 40;" xml:space="preserve">
<style type="text/css">
	.st0{clip-path:url(#SVGID_2_);}
	.st1{fill:#0071C2;}
</style>
<g>
	<defs>
		<rect id="SVGID_1_" width="34" height="40"/>
	</defs>
	<clipPath id="SVGID_2_">
		<use xlink:href="#SVGID_1_"  style="overflow:visible;"/>
	</clipPath>
	<g class="st0">
		<path class="st1" d="M3.1,0H1C0.5,0,0,0.5,0,1v6.2c0,0.6,0.5,1,1,1h1v29.7L2,40h26.8c0.6,0,1-0.5,1-1c0-0.6-0.5-1-1-1h-6.2V8.2h1
			c0.6,0,1-0.5,1-1V1c0-0.6-0.5-1-1-1H5.2H3.1z M2.1,2.1h20.6v4.1H2.1V2.1z M20.6,37.9H4.1V8.2h16.5V37.9z"/>
		<path class="st1" d="M12.4,13.3c0.6,0,1-0.5,1-1v-2.1c0-0.6-0.5-1-1-1s-1,0.5-1,1v2.1C11.3,12.9,11.8,13.3,12.4,13.3z"/>
		<path class="st1" d="M12.4,22.4c0.6,0,1-0.5,1-1v-4.5c0-0.6-0.5-1-1-1s-1,0.5-1,1v4.5C11.3,21.9,11.8,22.4,12.4,22.4z"/>
		<path class="st1" d="M12.4,31.4c0.6,0,1-0.5,1-1v-4.5c0-0.6-0.5-1-1-1s-1,0.5-1,1v4.5C11.3,30.9,11.8,31.4,12.4,31.4z"/>
		<path class="st1" d="M13.4,36.9v-2.1c0-0.6-0.5-1-1-1s-1,0.5-1,1v2.1c0,0.6,0.5,1,1,1S13.4,37.5,13.4,36.9z"/>
		<path class="st1" d="M17.5,13.3c0.6,0,1-0.5,1-1v-2.1c0-0.6-0.5-1-1-1s-1,0.5-1,1v2.1C16.5,12.9,16.9,13.3,17.5,13.3z"/>
		<path class="st1" d="M17.5,31.4c0.6,0,1-0.5,1-1v-4.5c0-0.6-0.5-1-1-1s-1,0.5-1,1v4.5C16.5,30.9,16.9,31.4,17.5,31.4z"/>
		<path class="st1" d="M17.5,22.4c0.6,0,1-0.5,1-1v-4.5c0-0.6-0.5-1-1-1s-1,0.5-1,1v4.5C16.5,21.9,16.9,22.4,17.5,22.4z"/>
		<path class="st1" d="M29.8,35.8c0.6,0,1-0.5,1-1V9.2c0-0.6-0.5-1-1-1c-0.6,0-1,0.5-1,1v25.5C28.8,35.3,29.2,35.8,29.8,35.8z"/>
		<path class="st1" d="M29,35.6c0.4,0.4,1.1,0.4,1.5,0l3.2-3.2c0.4-0.4,0.4-1.1,0-1.4c-0.4-0.4-1.1-0.4-1.5,0L29,34.2
			C28.6,34.6,28.6,35.2,29,35.6z"/>
		<path class="st1" d="M18.5,36.9v-2.1c0-0.6-0.5-1-1-1s-1,0.5-1,1v2.1c0,0.6,0.5,1,1,1S18.5,37.5,18.5,36.9z"/>
		<path class="st1" d="M7.2,13.3c0.6,0,1-0.5,1-1v-2.1c0-0.6-0.5-1-1-1s-1,0.5-1,1v2.1C6.2,12.9,6.6,13.3,7.2,13.3z"/>
		<path class="st1" d="M7.2,22.4c0.6,0,1-0.5,1-1v-4.5c0-0.6-0.5-1-1-1s-1,0.5-1,1v4.5C6.2,21.9,6.6,22.4,7.2,22.4z"/>
		<path class="st1" d="M7.2,31.4c0.6,0,1-0.5,1-1v-4.5c0-0.6-0.5-1-1-1s-1,0.5-1,1v4.5C6.2,30.9,6.6,31.4,7.2,31.4z"/>
		<path class="st1" d="M8.2,36.9v-2.1c0-0.6-0.5-1-1-1s-1,0.5-1,1v2.1c0,0.6,0.5,1,1,1S8.2,37.5,8.2,36.9z"/>
		<path class="st1" d="M30.5,35.6c0.4-0.4,0.4-1.1,0-1.4L27.3,31c-0.4-0.4-1.1-0.4-1.5,0c-0.4,0.4-0.4,1.1,0,1.4l3.2,3.2
			C29.5,36,30.1,36,30.5,35.6z"/>
	</g>
</g>
</svg>
