<svg width="39" height="39" viewBox="0 0 39 39" fill="none" xmlns="http://www.w3.org/2000/svg">
<g clip-path="url(#clip0)">
<path d="M38.5596 35.4878C32.0269 30.3983 24.3457 33.3797 16.7744 35.3539L13.3629 22.621C14.0308 22.6284 14.7065 22.795 15.3346 23.136C15.8819 23.453 16.5702 23.2607 16.8862 22.7382C17.9589 20.9644 20.2635 20.058 22.5629 21.2342C23.4424 21.6841 24.4381 20.8769 24.187 19.926C22.5336 13.6658 16.3903 9.88452 10.2344 10.9441L9.69233 8.92094C9.52909 8.31149 8.90273 7.94952 8.29305 8.11299C7.68353 8.2763 7.32186 8.90281 7.48517 9.51242L8.02721 11.5355C2.13981 13.7055 -1.26202 20.0733 0.4376 26.3029C0.700317 27.2655 1.9979 27.4551 2.51816 26.5923C3.63819 24.7351 6.03539 23.9307 8.18816 25.0792C8.72914 25.3663 9.39252 25.1769 9.70345 24.663C10.0759 24.047 10.5794 23.5598 11.1565 23.2156L14.5542 35.8969C10.1861 36.879 5.79652 37.2651 1.62009 35.3506C1.04659 35.0876 0.36836 35.3395 0.105414 35.9131C-0.157531 36.4868 0.0942933 37.165 0.667944 37.4279C13.7609 43.4297 27.5066 29.7731 37.1552 37.2906C37.6529 37.6783 38.3708 37.5893 38.7587 37.0915C39.1465 36.5936 39.0573 35.8756 38.5596 35.4878ZM21.1832 18.4455C19.5439 18.271 17.8928 18.7291 16.5764 19.726C15.8249 17.1726 14.4143 14.8593 12.4023 13.0515C16.0359 13.0839 19.4714 15.1392 21.1832 18.4455ZM2.29558 23.511C2.12709 19.8729 4.00221 16.3258 7.21332 14.4387C6.38221 16.9849 6.30162 19.6926 6.93377 22.3078C5.2912 22.1022 3.62905 22.5343 2.29558 23.511ZM9.16918 21.8287C8.51883 19.1952 8.70484 16.4534 9.85511 13.9314C12.1112 15.5392 13.6448 17.8147 14.4 20.4256C12.5373 20.1085 10.6233 20.6218 9.16918 21.8287Z" fill="#0071C2"/>
<path d="M21.7313 10.356H22.9462C23.5772 10.356 24.0887 9.84439 24.0887 9.21338C24.0887 8.58237 23.5771 8.0708 22.9462 8.0708H21.7313C21.1003 8.0708 20.5888 8.58237 20.5888 9.21338C20.5888 9.84439 21.1003 10.356 21.7313 10.356Z" fill="#0071C2"/>
<path d="M29.7873 13.0527C31.9042 13.0527 33.6265 11.3303 33.6265 9.21334C33.6265 7.0963 31.9042 5.3739 29.7873 5.3739C27.6704 5.3739 25.9482 7.0963 25.9482 9.21334C25.9482 11.3303 27.6704 13.0527 29.7873 13.0527ZM29.7873 7.65906C30.6443 7.65906 31.3414 8.35626 31.3414 9.21327C31.3414 10.0702 30.6443 10.7675 29.7873 10.7675C28.9304 10.7675 28.2333 10.0703 28.2333 9.21327C28.2333 8.35626 28.9304 7.65906 29.7873 7.65906Z" fill="#0071C2"/>
<path d="M29.7873 3.50025C30.4183 3.50025 30.9298 2.98868 30.9298 2.35767V1.14258C30.9298 0.51157 30.4182 0 29.7873 0C29.1564 0 28.6448 0.51157 28.6448 1.14258V2.3576C28.6448 2.98868 29.1563 3.50025 29.7873 3.50025Z" fill="#0071C2"/>
<path d="M24.1321 5.17348C24.5781 5.61969 25.3017 5.61977 25.7478 5.17348C26.1941 4.72726 26.1941 4.00386 25.7478 3.55757L24.8888 2.69843C24.4426 2.25214 23.7192 2.25214 23.273 2.69843C22.8268 3.14464 22.8268 3.86805 23.273 4.31434L24.1321 5.17348Z" fill="#0071C2"/>
<path d="M24.1321 13.2531L23.273 14.1123C22.8268 14.5585 22.8268 15.2819 23.273 15.7282C23.7191 16.1744 24.4426 16.1744 24.8888 15.7282L25.7478 14.869C26.1941 14.4228 26.1941 13.6994 25.7478 13.2531C25.3017 12.8068 24.5782 12.8068 24.1321 13.2531Z" fill="#0071C2"/>
<path d="M28.6448 16.069V17.2839C28.6448 17.9149 29.1564 18.4265 29.7873 18.4265C30.4182 18.4265 30.9298 17.9149 30.9298 17.2839V16.069C30.9298 15.438 30.4182 14.9264 29.7873 14.9264C29.1564 14.9264 28.6448 15.438 28.6448 16.069Z" fill="#0071C2"/>
<path d="M33.8268 13.2531C33.3806 13.6993 33.3806 14.4227 33.8268 14.869L34.6859 15.7282C35.1319 16.1744 35.8555 16.1744 36.3016 15.7282C36.7479 15.2819 36.7479 14.5585 36.3016 14.1123L35.4426 13.2531C34.9964 12.8068 34.273 12.8068 33.8268 13.2531Z" fill="#0071C2"/>
<path d="M35.5 9.21326C35.5 9.84426 36.0116 10.3558 36.6425 10.3558H37.8574C38.4885 10.3558 38.9999 9.84426 38.9999 9.21326C38.9999 8.58225 38.4884 8.07068 37.8574 8.07068H36.6425C36.0115 8.07068 35.5 8.58225 35.5 9.21326Z" fill="#0071C2"/>
<path d="M35.4426 5.17348L36.3016 4.31434C36.7479 3.86812 36.7479 3.14472 36.3016 2.69843C35.8555 2.25214 35.132 2.25214 34.6859 2.69843L33.8268 3.55757C33.3806 4.00378 33.3806 4.72719 33.8268 5.17348C34.2729 5.61969 34.9964 5.61977 35.4426 5.17348Z" fill="#0071C2"/>
</g>
<defs>
<clipPath id="clip0">
<rect width="39" height="39" fill="white"/>
</clipPath>
</defs>
</svg>
