<?xml version="1.0" encoding="utf-8"?>
<!-- Generator: Adobe Illustrator 23.1.0, SVG Export Plug-In . SVG Version: 6.00 Build 0)  -->
<svg version="1.1" id="Слой_1" xmlns="http://www.w3.org/2000/svg" xmlns:xlink="http://www.w3.org/1999/xlink" x="0px" y="0px"
	 width="30.8px" height="30.6px" viewBox="0 0 30.8 30.6" style="enable-background:new 0 0 30.8 30.6;" xml:space="preserve">
<style type="text/css">
	.st0{clip-path:url(#SVGID_2_);}
	.st1{fill:#0071C2;}
</style>
<g>
	<defs>
		<rect id="SVGID_1_" x="-1.6" y="-4.2" width="34.9" height="34.8"/>
	</defs>
	<clipPath id="SVGID_2_">
		<use xlink:href="#SVGID_1_"  style="overflow:visible;"/>
	</clipPath>
	<g class="st0">
		<path class="st1" d="M29.9,24c1.2,1.2,1.2,3.1,0,4.2l0,0l-2,2c-0.2,0.2-0.5,0.3-0.8,0.3c-0.3,0-0.6-0.1-0.9-0.4
			c-0.5-0.5-0.5-1.2,0-1.7l1.2-1.2H8.1c-2.6,0-4.8-2.1-4.8-4.8V3.4L2.1,4.5C1.7,5,0.9,5,0.4,4.5C0,4.1,0,3.3,0.5,2.9l2-2
			c1.2-1.1,3.1-1.1,4.2,0l2,2c0.5,0.5,0.5,1.2,0,1.7C8.5,4.8,8.2,4.9,7.9,4.9c-0.3,0-0.6-0.1-0.8-0.3L5.7,3.3v19.3
			c0,1.3,1.1,2.4,2.4,2.4h19.4l-1.3-1.3c-0.5-0.5-0.5-1.2,0-1.7c0.5-0.5,1.2-0.5,1.7,0L29.9,24C29.9,24,29.9,24,29.9,24z M27.2,0
			H11.7c-0.7,0-1.2,0.5-1.2,1.2c0,0.7,0.5,1.2,1.2,1.2h15.5c0.7,0,1.2,0.5,1.2,1.2v15.5c0,0.7,0.5,1.2,1.2,1.2
			c0.7,0,1.2-0.5,1.2-1.2V3.6C30.8,1.6,29.2,0,27.2,0z"/>
	</g>
</g>
</svg>
