<?xml version="1.0" encoding="utf-8"?>
<svg xmlns="http://www.w3.org/2000/svg" xmlns:xlink="http://www.w3.org/1999/xlink">

	<symbol id="icon-arrow-angle" viewBox="0 0 35 63" xmlns="http://www.w3.org/2000/svg">
		<path d="M5.27633 31.5016L33.4798 59.0502C34.1734 59.7277 34.1734 60.8143 33.4798 61.4919C32.7861 62.1694 31.6737 62.1694 30.9801 61.4919L1.52023 32.716C0.826593 32.0385 0.826593 30.9519 1.52023 30.2744L30.9801 1.51135C31.3204 1.17897 31.7784 1 32.2234 1C32.6684 1 33.1264 1.16619 33.4667 1.51135C34.1603 2.18888 34.1603 3.27548 33.4667 3.953L5.27633 31.5016Z" stroke-width="0.7"/>
	</symbol>

	<symbol id="icon-play-btn" viewBox="0 0 27 30" xmlns="http://www.w3.org/2000/svg">
		<path d="M25.0007 11.4636C27.6674 13.0032 27.6674 16.8522 25.0007 18.3918L6.25073 29.2172C3.58406 30.7568 0.250731 28.8323 0.250731 25.7531L0.250732 4.10242C0.250732 1.02321 3.58407 -0.901287 6.25073 0.638314L25.0007 11.4636Z" />
	</symbol>

	<symbol id="icon-bead" viewBox="0 0 21 21" xmlns="http://www.w3.org/2000/svg">
		<path d="M2.46094 11.7305V3.11719H0V17.8828H2.46094V15.4219H18.5391V17.8828H21V15.4219V11.7305H2.46094Z" />
		<path d="M5.53711 6.80859C4.51775 6.80859 3.69141 7.63494 3.69141 8.6543V10.5H7.38281V8.6543C7.38281 7.63494 6.55647 6.80859 5.53711 6.80859Z" />
		<path d="M19.1543 6.80859H10.459C9.43962 6.80859 8.61328 7.63494 8.61328 8.6543V10.5H21V8.6543C21 7.63494 20.1737 6.80859 19.1543 6.80859Z" />
	</symbol>

	<symbol id="icon-square" viewBox="0 0 30.8 30.6" xmlns="http://www.w3.org/2000/svg">
		<path d="M29.9,24c1.2,1.2,1.2,3.1,0,4.2l0,0l-2,2c-0.2,0.2-0.5,0.3-0.8,0.3c-0.3,0-0.6-0.1-0.9-0.4
			c-0.5-0.5-0.5-1.2,0-1.7l1.2-1.2H8.1c-2.6,0-4.8-2.1-4.8-4.8V3.4L2.1,4.5C1.7,5,0.9,5,0.4,4.5C0,4.1,0,3.3,0.5,2.9l2-2
			c1.2-1.1,3.1-1.1,4.2,0l2,2c0.5,0.5,0.5,1.2,0,1.7C8.5,4.8,8.2,4.9,7.9,4.9c-0.3,0-0.6-0.1-0.8-0.3L5.7,3.3v19.3
			c0,1.3,1.1,2.4,2.4,2.4h19.4l-1.3-1.3c-0.5-0.5-0.5-1.2,0-1.7c0.5-0.5,1.2-0.5,1.7,0L29.9,24C29.9,24,29.9,24,29.9,24z M27.2,0
			H11.7c-0.7,0-1.2,0.5-1.2,1.2c0,0.7,0.5,1.2,1.2,1.2h15.5c0.7,0,1.2,0.5,1.2,1.2v15.5c0,0.7,0.5,1.2,1.2,1.2
			c0.7,0,1.2-0.5,1.2-1.2V3.6C30.8,1.6,29.2,0,27.2,0z"/>
	</symbol>

	<symbol id="icon-beach" viewBox="0 0 39 39" xmlns="http://www.w3.org/2000/svg">
		<path d="M38.5596 35.4878C32.0269 30.3983 24.3457 33.3797 16.7744 35.3539L13.3629 22.621C14.0308 22.6284 14.7065 22.795 15.3346 23.136C15.8819 23.453 16.5702 23.2607 16.8862 22.7382C17.9589 20.9644 20.2635 20.058 22.5629 21.2342C23.4424 21.6841 24.4381 20.8769 24.187 19.926C22.5336 13.6658 16.3903 9.88452 10.2344 10.9441L9.69233 8.92094C9.52909 8.31149 8.90273 7.94952 8.29305 8.11299C7.68353 8.2763 7.32186 8.90281 7.48517 9.51242L8.02721 11.5355C2.13981 13.7055 -1.26202 20.0733 0.4376 26.3029C0.700317 27.2655 1.9979 27.4551 2.51816 26.5923C3.63819 24.7351 6.03539 23.9307 8.18816 25.0792C8.72914 25.3663 9.39252 25.1769 9.70345 24.663C10.0759 24.047 10.5794 23.5598 11.1565 23.2156L14.5542 35.8969C10.1861 36.879 5.79652 37.2651 1.62009 35.3506C1.04659 35.0876 0.36836 35.3395 0.105414 35.9131C-0.157531 36.4868 0.0942933 37.165 0.667944 37.4279C13.7609 43.4297 27.5066 29.7731 37.1552 37.2906C37.6529 37.6783 38.3708 37.5893 38.7587 37.0915C39.1465 36.5936 39.0573 35.8756 38.5596 35.4878ZM21.1832 18.4455C19.5439 18.271 17.8928 18.7291 16.5764 19.726C15.8249 17.1726 14.4143 14.8593 12.4023 13.0515C16.0359 13.0839 19.4714 15.1392 21.1832 18.4455ZM2.29558 23.511C2.12709 19.8729 4.00221 16.3258 7.21332 14.4387C6.38221 16.9849 6.30162 19.6926 6.93377 22.3078C5.2912 22.1022 3.62905 22.5343 2.29558 23.511ZM9.16918 21.8287C8.51883 19.1952 8.70484 16.4534 9.85511 13.9314C12.1112 15.5392 13.6448 17.8147 14.4 20.4256C12.5373 20.1085 10.6233 20.6218 9.16918 21.8287Z" />
		<path d="M21.7313 10.356H22.9462C23.5772 10.356 24.0887 9.84439 24.0887 9.21338C24.0887 8.58237 23.5771 8.0708 22.9462 8.0708H21.7313C21.1003 8.0708 20.5888 8.58237 20.5888 9.21338C20.5888 9.84439 21.1003 10.356 21.7313 10.356Z" />
		<path d="M29.7873 13.0527C31.9042 13.0527 33.6265 11.3303 33.6265 9.21334C33.6265 7.0963 31.9042 5.3739 29.7873 5.3739C27.6704 5.3739 25.9482 7.0963 25.9482 9.21334C25.9482 11.3303 27.6704 13.0527 29.7873 13.0527ZM29.7873 7.65906C30.6443 7.65906 31.3414 8.35626 31.3414 9.21327C31.3414 10.0702 30.6443 10.7675 29.7873 10.7675C28.9304 10.7675 28.2333 10.0703 28.2333 9.21327C28.2333 8.35626 28.9304 7.65906 29.7873 7.65906Z" />
		<path d="M29.7873 3.50025C30.4183 3.50025 30.9298 2.98868 30.9298 2.35767V1.14258C30.9298 0.51157 30.4182 0 29.7873 0C29.1564 0 28.6448 0.51157 28.6448 1.14258V2.3576C28.6448 2.98868 29.1563 3.50025 29.7873 3.50025Z" />
		<path d="M24.1321 5.17348C24.5781 5.61969 25.3017 5.61977 25.7478 5.17348C26.1941 4.72726 26.1941 4.00386 25.7478 3.55757L24.8888 2.69843C24.4426 2.25214 23.7192 2.25214 23.273 2.69843C22.8268 3.14464 22.8268 3.86805 23.273 4.31434L24.1321 5.17348Z" />
		<path d="M24.1321 13.2531L23.273 14.1123C22.8268 14.5585 22.8268 15.2819 23.273 15.7282C23.7191 16.1744 24.4426 16.1744 24.8888 15.7282L25.7478 14.869C26.1941 14.4228 26.1941 13.6994 25.7478 13.2531C25.3017 12.8068 24.5782 12.8068 24.1321 13.2531Z" />
		<path d="M28.6448 16.069V17.2839C28.6448 17.9149 29.1564 18.4265 29.7873 18.4265C30.4182 18.4265 30.9298 17.9149 30.9298 17.2839V16.069C30.9298 15.438 30.4182 14.9264 29.7873 14.9264C29.1564 14.9264 28.6448 15.438 28.6448 16.069Z" />
		<path d="M33.8268 13.2531C33.3806 13.6993 33.3806 14.4227 33.8268 14.869L34.6859 15.7282C35.1319 16.1744 35.8555 16.1744 36.3016 15.7282C36.7479 15.2819 36.7479 14.5585 36.3016 14.1123L35.4426 13.2531C34.9964 12.8068 34.273 12.8068 33.8268 13.2531Z" />
		<path d="M35.5 9.21326C35.5 9.84426 36.0116 10.3558 36.6425 10.3558H37.8574C38.4885 10.3558 38.9999 9.84426 38.9999 9.21326C38.9999 8.58225 38.4884 8.07068 37.8574 8.07068H36.6425C36.0115 8.07068 35.5 8.58225 35.5 9.21326Z" />
		<path d="M35.4426 5.17348L36.3016 4.31434C36.7479 3.86812 36.7479 3.14472 36.3016 2.69843C35.8555 2.25214 35.132 2.25214 34.6859 2.69843L33.8268 3.55757C33.3806 4.00378 33.3806 4.72719 33.8268 5.17348C34.2729 5.61969 34.9964 5.61977 35.4426 5.17348Z" />
	</symbol>

	<symbol id="icon-floor" viewBox="0 0 24 23" xmlns="http://www.w3.org/2000/svg">
		<path d="M16.5233 21.1652H13.2927V5.19947H13.7061C14.0982 5.19947 14.4195 4.88056 14.4195 4.48859V1.12326C14.4195 0.731294 14.0982 0.412378 13.7061 0.412378H3.56425H2.43738H1.31051C0.918416 0.412378 0.59707 0.731294 0.59707 1.12326V4.48859C0.59707 4.88056 0.918416 5.19947 1.31051 5.19947H1.72394V21.3147V21.3152L1.7169 22.436L1.71596 22.587H1.8669H16.5233C16.9154 22.587 17.2367 22.268 17.2367 21.8761C17.2367 21.4841 16.9154 21.1652 16.5233 21.1652ZM11.8658 21.1652H3.15082V5.19947H11.8658V21.1652Z"  stroke-width="0.3"/>
		<path d="M7.50875 10.9396C7.90084 10.9396 8.22218 10.6207 8.22218 10.2287V7.76084C8.22218 7.36887 7.90084 7.04995 7.50875 7.04995C7.11666 7.04995 6.79531 7.36887 6.79531 7.76084V10.2287C6.79531 10.6207 7.11666 10.9396 7.50875 10.9396Z"  stroke-width="0.3"/>
		<path d="M7.50875 15.8755C7.90084 15.8755 8.22218 15.5566 8.22218 15.1647V12.6968C8.22218 12.3048 7.90084 11.9859 7.50875 11.9859C7.11666 11.9859 6.79531 12.3048 6.79531 12.6968V15.1647C6.79531 15.5566 7.11666 15.8755 7.50875 15.8755Z"  stroke-width="0.3"/>
		<path d="M8.22218 18.7543V17.6325C8.22218 17.2406 7.90084 16.9217 7.50875 16.9217C7.11666 16.9217 6.79531 17.2406 6.79531 17.6325V18.7543C6.79531 19.1463 7.11666 19.4652 7.50875 19.4652C7.90084 19.4652 8.22218 19.1463 8.22218 18.7543Z"  stroke-width="0.3"/>
		<path d="M10.3261 15.8755C10.7182 15.8755 11.0396 15.5566 11.0396 15.1647V12.6968C11.0396 12.3048 10.7182 11.9859 10.3261 11.9859C9.93404 11.9859 9.6127 12.3048 9.6127 12.6968V15.1647C9.6127 15.5566 9.93404 15.8755 10.3261 15.8755Z"  stroke-width="0.3"/>
		<path d="M10.3261 10.9396C10.7182 10.9396 11.0396 10.6207 11.0396 10.2287V7.76084C11.0396 7.36887 10.7182 7.04995 10.3261 7.04995C9.93404 7.04995 9.6127 7.36887 9.6127 7.76084V10.2287C9.6127 10.6207 9.93404 10.9396 10.3261 10.9396Z"  stroke-width="0.3"/>
		<path d="M21.0371 20.2942C21.4292 20.2942 21.7505 19.9753 21.7505 19.5834V5.61728C21.7505 5.22531 21.4292 4.9064 21.0371 4.9064C20.645 4.9064 20.3236 5.22531 20.3236 5.61728V19.5834C20.3236 19.9753 20.645 20.2942 21.0371 20.2942Z"  stroke-width="0.3"/>
		<path d="M20.5228 20.1595C20.7996 20.4351 21.2534 20.4351 21.5303 20.1595L23.284 18.4137C23.5612 18.1378 23.5612 17.6849 23.284 17.4089C23.0071 17.1333 22.5533 17.1333 22.2765 17.4089L22.3823 17.5152L22.2765 17.4089L20.5228 19.1546C20.2455 19.4306 20.2455 19.8835 20.5228 20.1595Z"  stroke-width="0.3"/>
		<path d="M11.0396 18.7543V17.6325C11.0396 17.2406 10.7182 16.9217 10.3261 16.9217C9.93404 16.9217 9.6127 17.2406 9.6127 17.6325V18.7543C9.6127 19.1463 9.93404 19.4652 10.3261 19.4652C10.7182 19.4652 11.0396 19.1463 11.0396 18.7543Z"  stroke-width="0.3"/>
		<path d="M4.69137 10.9396C5.08346 10.9396 5.4048 10.6207 5.4048 10.2287V7.76084C5.4048 7.36887 5.08346 7.04995 4.69137 7.04995C4.29928 7.04995 3.97793 7.36887 3.97793 7.76084V10.2287C3.97793 10.6207 4.29928 10.9396 4.69137 10.9396Z"  stroke-width="0.3"/>
		<path d="M4.69137 15.8755C5.08346 15.8755 5.4048 15.5566 5.4048 15.1647V12.6968C5.4048 12.3048 5.08346 11.9859 4.69137 11.9859C4.29928 11.9859 3.97793 12.3048 3.97793 12.6968V15.1647C3.97793 15.5566 4.29928 15.8755 4.69137 15.8755Z"  stroke-width="0.3"/>
		<path d="M5.4048 18.7543V17.6325C5.4048 17.2406 5.08346 16.9217 4.69137 16.9217C4.29928 16.9217 3.97793 17.2406 3.97793 17.6325V18.7543C3.97793 19.1463 4.29928 19.4652 4.69137 19.4652C5.08346 19.4652 5.4048 19.1463 5.4048 18.7543Z"  stroke-width="0.3"/>
		<path d="M21.5379 20.1525C21.8151 19.8766 21.8151 19.4237 21.5379 19.1477L19.7842 17.4019C19.5073 17.1263 19.0535 17.1263 18.7767 17.4019C18.4994 17.6779 18.4994 18.1308 18.7767 18.4068L20.5304 20.1525C20.8072 20.4281 21.261 20.4281 21.5379 20.1525Z"  stroke-width="0.3"/>
	</symbol>

	<symbol id="icon-complex" viewBox="0 0 55 45" xmlns="http://www.w3.org/2000/svg">
		<path d="M49.5048 43.1057V39.7684C51.3081 39.3983 52.6685 37.7988 52.6685 35.8877C52.6685 33.7035 50.8916 31.9264 48.7072 31.9264C46.5228 31.9264 44.7459 33.7035 44.7459 35.8877C44.7459 37.7989 46.1063 39.3983 47.9096 39.7684V43.1057H43.1493V0H20.8148V6.81326L11.2463 13.9396V43.1057H6.39862V39.7684C8.20195 39.3983 9.56235 37.7988 9.56235 35.8877C9.56235 33.7035 7.78528 31.9264 5.60101 31.9264C3.41674 31.9264 1.63967 33.7035 1.63967 35.8877C1.63967 37.7989 3.00007 39.3983 4.8034 39.7684V43.1057H0V44.7009H54.3436V43.1057H49.5048ZM46.3412 35.8877C46.3412 34.583 47.4025 33.5216 48.7073 33.5216C50.0121 33.5216 51.0734 34.583 51.0734 35.8877C51.0734 37.1925 50.0121 38.2539 48.7073 38.2539C47.4025 38.2539 46.3412 37.1925 46.3412 35.8877ZM3.23488 35.8877C3.23488 34.583 4.29623 33.5216 5.60101 33.5216C6.90579 33.5216 7.96714 34.583 7.96714 35.8877C7.96714 37.1925 6.90568 38.2539 5.60101 38.2539C4.29634 38.2539 3.23488 37.1925 3.23488 35.8877ZM12.8415 15.9885H19.1426V14.3933H13.3078L20.8148 8.80239V36.6712H22.41V7.21377V5.62515V1.59521H41.554V6.41616H23.9282V8.01138H41.554V43.1057H39.8791V35.1291H23.9785V43.1057H22.41V41.4568H20.8148V43.1057H12.8415V15.9885ZM38.2839 43.1057H25.5737V36.7243H38.2839V43.1057Z" />
		<path d="M20.8145 38.2664H22.4097V39.8616H20.8145V38.2664Z" />
		<path d="M14.4092 17.584V22.3694H19.1945V17.584H14.4092ZM17.5993 20.7742H16.0044V19.1793H17.5993V20.7742Z" />
		<path d="M14.4092 28.7504H19.1945V23.965H14.4092V28.7504ZM16.0044 25.5602H17.5993V27.1551H16.0044V25.5602Z" />
		<path d="M14.4092 35.1312H19.1945V30.3459H14.4092V35.1312ZM16.0044 31.9412H17.5993V33.536H16.0044V31.9412Z" />
		<path d="M14.4092 41.5121H19.1945V36.7268H14.4092V41.5121ZM16.0044 38.322H17.5993V39.9169H16.0044V38.322Z" />
		<path d="M27.1186 12.7273H25.5737V11.203H38.2839V12.7273H28.7139V14.3225H39.8791V9.60779H23.9785V14.3225H27.1186V12.7273Z" />
		<path d="M39.8791 16.0251H36.6899V17.6203H38.2839V19.1445H25.5737V17.6203H35.1724V16.0251H23.9785V20.7397H39.8791V16.0251Z" />
		<path d="M39.8791 22.3361H28.7139V23.9313H38.2839V25.562H25.5737V23.9313H27.1186V22.3361H23.9785V27.1572H39.8791V22.3361Z" />
		<path d="M39.8791 28.7535H36.6899V30.3488H38.2839V31.9794H25.5737V30.3488H35.0947V28.7535H23.9785V33.5746H39.8791V28.7535Z" />
		<path d="M27.9941 3.15469H29.5894V4.74991H27.9941V3.15469Z" />
		<path d="M31.1846 3.15469H32.7798V4.74991H31.1846V3.15469Z" />
		<path d="M34.375 3.15469H35.9702V4.74991H34.375V3.15469Z" />
	</symbol>



</svg>









